{"asset":{"version":"2.0","generator":"THREE.GLTFExporter r185"},"scenes":[{"nodes":[0]}],"scene":0,"nodes":[{"matrix":[1,0,0,0,0,1,0,0,0,0,1,0,-4.75,0,-4.5,1],"children":[1,2,3,4,5,6,7,8,9,10,11,12,13,14,15,16,17,18,19,20]},{"mesh":0},{"matrix":[1,0,0,0,0,1,0,0,0,0,1,0,3,1.5,0,1],"mesh":1},{"matrix":[2.220446049250313e-16,0,1,0,0,1,0,0,-1,0,2.220446049250313e-16,0,6,1.5,2.25,1],"mesh":2},{"matrix":[-1,0,1.2246467991473532e-16,0,0,1,0,0,-1.2246467991473532e-16,0,-1,0,3,1.5,4.5,1],"mesh":3},{"matrix":[2.220446049250313e-16,0,-1,0,0,1,0,0,1,0,2.220446049250313e-16,0,0,1.5,2.25,1],"mesh":4},{"mesh":5},{"matrix":[1,0,0,0,0,1,0,0,0,0,1,0,7.75,1.5,0,1],"mesh":6},{"matrix":[2.220446049250313e-16,0,1,0,0,1,0,0,-1,0,2.220446049250313e-16,0,9.5,1.5,2.25,1],"mesh":7},{"matrix":[-1,0,1.2246467991473532e-16,0,0,1,0,0,-1.2246467991473532e-16,0,-1,0,7.75,1.5,4.5,1],"mesh":8},{"matrix":[2.220446049250313e-16,0,-1,0,0,1,0,0,1,0,2.220446049250313e-16,0,6,1.5,2.25,1],"mesh":9},{"mesh":10},{"matrix":[1,0,0,0,0,1,0,0,0,0,1,0,2.25,1.5,4.5,1],"mesh":11},{"matrix":[2.220446049250313e-16,0,1,0,0,1,0,0,-1,0,2.220446049250313e-16,0,4.5,1.5,6.75,1],"mesh":12},{"matrix":[-1,0,1.2246467991473532e-16,0,0,1,0,0,-1.2246467991473532e-16,0,-1,0,2.25,1.5,9,1],"mesh":13},{"matrix":[2.220446049250313e-16,0,-1,0,0,1,0,0,1,0,2.220446049250313e-16,0,0,1.5,6.75,1],"mesh":14},{"mesh":15},{"matrix":[1,0,0,0,0,1,0,0,0,0,1,0,5.5,1.5,4.5,1],"mesh":16},{"matrix":[2.220446049250313e-16,0,1,0,0,1,0,0,-1,0,2.220446049250313e-16,0,6.5,1.5,5.75,1],"mesh":17},{"matrix":[-1,0,1.2246467991473532e-16,0,0,1,0,0,-1.2246467991473532e-16,0,-1,0,5.5,1.5,7,1],"mesh":18},{"matrix":[2.220446049250313e-16,0,-1,0,0,1,0,0,1,0,2.220446049250313e-16,0,4.5,1.5,5.75,1],"mesh":19}],"bufferViews":[{"buffer":0,"byteOffset":0,"byteLength":48,"target":34962,"byteStride":12},{"buffer":0,"byteOffset":48,"byteLength":48,"target":34962,"byteStride":12},{"buffer":0,"byteOffset":96,"byteLength":32,"target":34962,"byteStride":8},{"buffer":0,"byteOffset":128,"byteLength":12,"target":34963},{"buffer":0,"byteOffset":140,"byteLength":288,"target":34962,"byteStride":12},{"buffer":0,"byteOffset":428,"byteLength":288,"target":34962,"byteStride":12},{"buffer":0,"byteOffset":716,"byteLength":192,"target":34962,"byteStride":8},{"buffer":0,"byteOffset":908,"byteLength":72,"target":34963},{"buffer":0,"byteOffset":980,"byteLength":288,"target":34962,"byteStride":12},{"buffer":0,"byteOffset":1268,"byteLength":288,"target":34962,"byteStride":12},{"buffer":0,"byteOffset":1556,"byteLength":192,"target":34962,"byteStride":8},{"buffer":0,"byteOffset":1748,"byteLength":72,"target":34963},{"buffer":0,"byteOffset":1820,"byteLength":288,"target":34962,"byteStride":12},{"buffer":0,"byteOffset":2108,"byteLength":288,"target":34962,"byteStride":12},{"buffer":0,"byteOffset":2396,"byteLength":192,"target":34962,"byteStride":8},{"buffer":0,"byteOffset":2588,"byteLength":72,"target":34963},{"buffer":0,"byteOffset":2660,"byteLength":288,"target":34962,"byteStride":12},{"buffer":0,"byteOffset":2948,"byteLength":288,"target":34962,"byteStride":12},{"buffer":0,"byteOffset":3236,"byteLength":192,"target":34962,"byteStride":8},{"buffer":0,"byteOffset":3428,"byteLength":72,"target":34963},{"buffer":0,"byteOffset":3500,"byteLength":48,"target":34962,"byteStride":12},{"buffer":0,"byteOffset":3548,"byteLength":48,"target":34962,"byteStride":12},{"buffer":0,"byteOffset":3596,"byteLength":32,"target":34962,"byteStride":8},{"buffer":0,"byteOffset":3628,"byteLength":12,"target":34963},{"buffer":0,"byteOffset":3640,"byteLength":288,"target":34962,"byteStride":12},{"buffer":0,"byteOffset":3928,"byteLength":288,"target":34962,"byteStride":12},{"buffer":0,"byteOffset":4216,"byteLength":192,"target":34962,"byteStride":8},{"buffer":0,"byteOffset":4408,"byteLength":72,"target":34963},{"buffer":0,"byteOffset":4480,"byteLength":288,"target":34962,"byteStride":12},{"buffer":0,"byteOffset":4768,"byteLength":288,"target":34962,"byteStride":12},{"buffer":0,"byteOffset":5056,"byteLength":192,"target":34962,"byteStride":8},{"buffer":0,"byteOffset":5248,"byteLength":72,"target":34963},{"buffer":0,"byteOffset":5320,"byteLength":288,"target":34962,"byteStride":12},{"buffer":0,"byteOffset":5608,"byteLength":288,"target":34962,"byteStride":12},{"buffer":0,"byteOffset":5896,"byteLength":192,"target":34962,"byteStride":8},{"buffer":0,"byteOffset":6088,"byteLength":72,"target":34963},{"buffer":0,"byteOffset":6160,"byteLength":288,"target":34962,"byteStride":12},{"buffer":0,"byteOffset":6448,"byteLength":288,"target":34962,"byteStride":12},{"buffer":0,"byteOffset":6736,"byteLength":192,"target":34962,"byteStride":8},{"buffer":0,"byteOffset":6928,"byteLength":72,"target":34963},{"buffer":0,"byteOffset":7000,"byteLength":48,"target":34962,"byteStride":12},{"buffer":0,"byteOffset":7048,"byteLength":48,"target":34962,"byteStride":12},{"buffer":0,"byteOffset":7096,"byteLength":32,"target":34962,"byteStride":8},{"buffer":0,"byteOffset":7128,"byteLength":12,"target":34963},{"buffer":0,"byteOffset":7140,"byteLength":288,"target":34962,"byteStride":12},{"buffer":0,"byteOffset":7428,"byteLength":288,"target":34962,"byteStride":12},{"buffer":0,"byteOffset":7716,"byteLength":192,"target":34962,"byteStride":8},{"buffer":0,"byteOffset":7908,"byteLength":72,"target":34963},{"buffer":0,"byteOffset":7980,"byteLength":288,"target":34962,"byteStride":12},{"buffer":0,"byteOffset":8268,"byteLength":288,"target":34962,"byteStride":12},{"buffer":0,"byteOffset":8556,"byteLength":192,"target":34962,"byteStride":8},{"buffer":0,"byteOffset":8748,"byteLength":72,"target":34963},{"buffer":0,"byteOffset":8820,"byteLength":288,"target":34962,"byteStride":12},{"buffer":0,"byteOffset":9108,"byteLength":288,"target":34962,"byteStride":12},{"buffer":0,"byteOffset":9396,"byteLength":192,"target":34962,"byteStride":8},{"buffer":0,"byteOffset":9588,"byteLength":72,"target":34963},{"buffer":0,"byteOffset":9660,"byteLength":288,"target":34962,"byteStride":12},{"buffer":0,"byteOffset":9948,"byteLength":288,"target":34962,"byteStride":12},{"buffer":0,"byteOffset":10236,"byteLength":192,"target":34962,"byteStride":8},{"buffer":0,"byteOffset":10428,"byteLength":72,"target":34963},{"buffer":0,"byteOffset":10500,"byteLength":48,"target":34962,"byteStride":12},{"buffer":0,"byteOffset":10548,"byteLength":48,"target":34962,"byteStride":12},{"buffer":0,"byteOffset":10596,"byteLength":32,"target":34962,"byteStride":8},{"buffer":0,"byteOffset":10628,"byteLength":12,"target":34963},{"buffer":0,"byteOffset":10640,"byteLength":288,"target":34962,"byteStride":12},{"buffer":0,"byteOffset":10928,"byteLength":288,"target":34962,"byteStride":12},{"buffer":0,"byteOffset":11216,"byteLength":192,"target":34962,"byteStride":8},{"buffer":0,"byteOffset":11408,"byteLength":72,"target":34963},{"buffer":0,"byteOffset":11480,"byteLength":288,"target":34962,"byteStride":12},{"buffer":0,"byteOffset":11768,"byteLength":288,"target":34962,"byteStride":12},{"buffer":0,"byteOffset":12056,"byteLength":192,"target":34962,"byteStride":8},{"buffer":0,"byteOffset":12248,"byteLength":72,"target":34963},{"buffer":0,"byteOffset":12320,"byteLength":288,"target":34962,"byteStride":12},{"buffer":0,"byteOffset":12608,"byteLength":288,"target":34962,"byteStride":12},{"buffer":0,"byteOffset":12896,"byteLength":192,"target":34962,"byteStride":8},{"buffer":0,"byteOffset":13088,"byteLength":72,"target":34963},{"buffer":0,"byteOffset":13160,"byteLength":288,"target":34962,"byteStride":12},{"buffer":0,"byteOffset":13448,"byteLength":288,"target":34962,"byteStride":12},{"buffer":0,"byteOffset":13736,"byteLength":192,"target":34962,"byteStride":8},{"buffer":0,"byteOffset":13928,"byteLength":72,"target":34963}],"buffers":[{"byteLength":14000,"uri":"data:application/octet-stream;base64,"}],"accessors":[{"bufferView":0,"componentType":5126,"count":4,"max":[6,2.7554553521421787e-16,4.5],"min":[0,0,0],"type":"VEC3"},{"bufferView":1,"componentType":5126,"count":4,"max":[0,-1,6.123234262925839e-17],"min":[0,-1,6.123234262925839e-17],"type":"VEC3"},{"bufferView":2,"componentType":5126,"count":4,"max":[6,4.5],"min":[0,0],"type":"VEC2"},{"bufferView":3,"componentType":5123,"count":6,"max":[3],"min":[0],"type":"SCALAR"},{"bufferView":4,"componentType":5126,"count":24,"max":[3,1.5,0.05999999865889549],"min":[-3,-1.5,-0.05999999865889549],"type":"VEC3"},{"bufferView":5,"componentType":5126,"count":24,"max":[1,1,1],"min":[-1,-1,-1],"type":"VEC3"},{"bufferView":6,"componentType":5126,"count":24,"max":[1,1],"min":[0,0],"type":"VEC2"},{"bufferView":7,"componentType":5123,"count":36,"max":[23],"min":[0],"type":"SCALAR"},{"bufferView":8,"componentType":5126,"count":24,"max":[2.25,1.5,0.05999999865889549],"min":[-2.25,-1.5,-0.05999999865889549],"type":"VEC3"},{"bufferView":9,"componentType":5126,"count":24,"max":[1,1,1],"min":[-1,-1,-1],"type":"VEC3"},{"bufferView":10,"componentType":5126,"count":24,"max":[1,1],"min":[0,0],"type":"VEC2"},{"bufferView":11,"componentType":5123,"count":36,"max":[23],"min":[0],"type":"SCALAR"},{"bufferView":12,"componentType":5126,"count":24,"max":[3,1.5,0.05999999865889549],"min":[-3,-1.5,-0.05999999865889549],"type":"VEC3"},{"bufferView":13,"componentType":5126,"count":24,"max":[1,1,1],"min":[-1,-1,-1],"type":"VEC3"},{"bufferView":14,"componentType":5126,"count":24,"max":[1,1],"min":[0,0],"type":"VEC2"},{"bufferView":15,"componentType":5123,"count":36,"max":[23],"min":[0],"type":"SCALAR"},{"bufferView":16,"componentType":5126,"count":24,"max":[2.25,1.5,0.05999999865889549],"min":[-2.25,-1.5,-0.05999999865889549],"type":"VEC3"},{"bufferView":17,"componentType":5126,"count":24,"max":[1,1,1],"min":[-1,-1,-1],"type":"VEC3"},{"bufferView":18,"componentType":5126,"count":24,"max":[1,1],"min":[0,0],"type":"VEC2"},{"bufferView":19,"componentType":5123,"count":36,"max":[23],"min":[0],"type":"SCALAR"},{"bufferView":20,"componentType":5126,"count":4,"max":[9.5,2.7554553521421787e-16,4.5],"min":[6,0,0],"type":"VEC3"},{"bufferView":21,"componentType":5126,"count":4,"max":[0,-1,6.123234262925839e-17],"min":[0,-1,6.123234262925839e-17],"type":"VEC3"},{"bufferView":22,"componentType":5126,"count":4,"max":[9.5,4.5],"min":[6,0],"type":"VEC2"},{"bufferView":23,"componentType":5123,"count":6,"max":[3],"min":[0],"type":"SCALAR"},{"bufferView":24,"componentType":5126,"count":24,"max":[1.75,1.5,0.05999999865889549],"min":[-1.75,-1.5,-0.05999999865889549],"type":"VEC3"},{"bufferView":25,"componentType":5126,"count":24,"max":[1,1,1],"min":[-1,-1,-1],"type":"VEC3"},{"bufferView":26,"componentType":5126,"count":24,"max":[1,1],"min":[0,0],"type":"VEC2"},{"bufferView":27,"componentType":5123,"count":36,"max":[23],"min":[0],"type":"SCALAR"},{"bufferView":28,"componentType":5126,"count":24,"max":[2.25,1.5,0.05999999865889549],"min":[-2.25,-1.5,-0.05999999865889549],"type":"VEC3"},{"bufferView":29,"componentType":5126,"count":24,"max":[1,1,1],"min":[-1,-1,-1],"type":"VEC3"},{"bufferView":30,"componentType":5126,"count":24,"max":[1,1],"min":[0,0],"type":"VEC2"},{"bufferView":31,"componentType":5123,"count":36,"max":[23],"min":[0],"type":"SCALAR"},{"bufferView":32,"componentType":5126,"count":24,"max":[1.75,1.5,0.05999999865889549],"min":[-1.75,-1.5,-0.05999999865889549],"type":"VEC3"},{"bufferView":33,"componentType":5126,"count":24,"max":[1,1,1],"min":[-1,-1,-1],"type":"VEC3"},{"bufferView":34,"componentType":5126,"count":24,"max":[1,1],"min":[0,0],"type":"VEC2"},{"bufferView":35,"componentType":5123,"count":36,"max":[23],"min":[0],"type":"SCALAR"},{"bufferView":36,"componentType":5126,"count":24,"max":[2.25,1.5,0.05999999865889549],"min":[-2.25,-1.5,-0.05999999865889549],"type":"VEC3"},{"bufferView":37,"componentType":5126,"count":24,"max":[1,1,1],"min":[-1,-1,-1],"type":"VEC3"},{"bufferView":38,"componentType":5126,"count":24,"max":[1,1],"min":[0,0],"type":"VEC2"},{"bufferView":39,"componentType":5123,"count":36,"max":[23],"min":[0],"type":"SCALAR"},{"bufferView":40,"componentType":5126,"count":4,"max":[4.5,5.510910704284357e-16,9],"min":[0,2.7554553521421787e-16,4.5],"type":"VEC3"},{"bufferView":41,"componentType":5126,"count":4,"max":[0,-1,6.123234262925839e-17],"min":[0,-1,6.123234262925839e-17],"type":"VEC3"},{"bufferView":42,"componentType":5126,"count":4,"max":[4.5,9],"min":[0,4.5],"type":"VEC2"},{"bufferView":43,"componentType":5123,"count":6,"max":[3],"min":[0],"type":"SCALAR"},{"bufferView":44,"componentType":5126,"count":24,"max":[2.25,1.5,0.05999999865889549],"min":[-2.25,-1.5,-0.05999999865889549],"type":"VEC3"},{"bufferView":45,"componentType":5126,"count":24,"max":[1,1,1],"min":[-1,-1,-1],"type":"VEC3"},{"bufferView":46,"componentType":5126,"count":24,"max":[1,1],"min":[0,0],"type":"VEC2"},{"bufferView":47,"componentType":5123,"count":36,"max":[23],"min":[0],"type":"SCALAR"},{"bufferView":48,"componentType":5126,"count":24,"max":[2.25,1.5,0.05999999865889549],"min":[-2.25,-1.5,-0.05999999865889549],"type":"VEC3"},{"bufferView":49,"componentType":5126,"count":24,"max":[1,1,1],"min":[-1,-1,-1],"type":"VEC3"},{"bufferView":50,"componentType":5126,"count":24,"max":[1,1],"min":[0,0],"type":"VEC2"},{"bufferView":51,"componentType":5123,"count":36,"max":[23],"min":[0],"type":"SCALAR"},{"bufferView":52,"componentType":5126,"count":24,"max":[2.25,1.5,0.05999999865889549],"min":[-2.25,-1.5,-0.05999999865889549],"type":"VEC3"},{"bufferView":53,"componentType":5126,"count":24,"max":[1,1,1],"min":[-1,-1,-1],"type":"VEC3"},{"bufferView":54,"componentType":5126,"count":24,"max":[1,1],"min":[0,0],"type":"VEC2"},{"bufferView":55,"componentType":5123,"count":36,"max":[23],"min":[0],"type":"SCALAR"},{"bufferView":56,"componentType":5126,"count":24,"max":[2.25,1.5,0.05999999865889549],"min":[-2.25,-1.5,-0.05999999865889549],"type":"VEC3"},{"bufferView":57,"componentType":5126,"count":24,"max":[1,1,1],"min":[-1,-1,-1],"type":"VEC3"},{"bufferView":58,"componentType":5126,"count":24,"max":[1,1],"min":[0,0],"type":"VEC2"},{"bufferView":59,"componentType":5123,"count":36,"max":[23],"min":[0],"type":"SCALAR"},{"bufferView":60,"componentType":5126,"count":4,"max":[6.5,4.2862638516991895e-16,7],"min":[4.5,2.7554553521421787e-16,4.5],"type":"VEC3"},{"bufferView":61,"componentType":5126,"count":4,"max":[0,-1,6.123234262925839e-17],"min":[0,-1,6.123234262925839e-17],"type":"VEC3"},{"bufferView":62,"componentType":5126,"count":4,"max":[6.5,7],"min":[4.5,4.5],"type":"VEC2"},{"bufferView":63,"componentType":5123,"count":6,"max":[3],"min":[0],"type":"SCALAR"},{"bufferView":64,"componentType":5126,"count":24,"max":[1,1.5,0.05999999865889549],"min":[-1,-1.5,-0.05999999865889549],"type":"VEC3"},{"bufferView":65,"componentType":5126,"count":24,"max":[1,1,1],"min":[-1,-1,-1],"type":"VEC3"},{"bufferView":66,"componentType":5126,"count":24,"max":[1,1],"min":[0,0],"type":"VEC2"},{"bufferView":67,"componentType":5123,"count":36,"max":[23],"min":[0],"type":"SCALAR"},{"bufferView":68,"componentType":5126,"count":24,"max":[1.25,1.5,0.05999999865889549],"min":[-1.25,-1.5,-0.05999999865889549],"type":"VEC3"},{"bufferView":69,"componentType":5126,"count":24,"max":[1,1,1],"min":[-1,-1,-1],"type":"VEC3"},{"bufferView":70,"componentType":5126,"count":24,"max":[1,1],"min":[0,0],"type":"VEC2"},{"bufferView":71,"componentType":5123,"count":36,"max":[23],"min":[0],"type":"SCALAR"},{"bufferView":72,"componentType":5126,"count":24,"max":[1,1.5,0.05999999865889549],"min":[-1,-1.5,-0.05999999865889549],"type":"VEC3"},{"bufferView":73,"componentType":5126,"count":24,"max":[1,1,1],"min":[-1,-1,-1],"type":"VEC3"},{"bufferView":74,"componentType":5126,"count":24,"max":[1,1],"min":[0,0],"type":"VEC2"},{"bufferView":75,"componentType":5123,"count":36,"max":[23],"min":[0],"type":"SCALAR"},{"bufferView":76,"componentType":5126,"count":24,"max":[1.25,1.5,0.05999999865889549],"min":[-1.25,-1.5,-0.05999999865889549],"type":"VEC3"},{"bufferView":77,"componentType":5126,"count":24,"max":[1,1,1],"min":[-1,-1,-1],"type":"VEC3"},{"bufferView":78,"componentType":5126,"count":24,"max":[1,1],"min":[0,0],"type":"VEC2"},{"bufferView":79,"componentType":5123,"count":36,"max":[23],"min":[0],"type":"SCALAR"}],"materials":[{"pbrMetallicRoughness":{"baseColorFactor":[0.48514994004665124,0.2541520943200296,0.10224173307914941,1],"metallicFactor":0,"roughnessFactor":0.9},"doubleSided":true},{"pbrMetallicRoughness":{"baseColorFactor":[0.8962693533719567,0.8631572134510892,0.8148465722120952,1],"metallicFactor":0,"roughnessFactor":0.85},"doubleSided":true},{"pbrMetallicRoughness":{"baseColorFactor":[0.6104955708001716,0.450785782828426,0.2917706498067336,1],"metallicFactor":0,"roughnessFactor":0.9},"doubleSided":true},{"pbrMetallicRoughness":{"baseColorFactor":[0.3967552307153359,0.43415363616478553,0.3515325994898463,1],"metallicFactor":0,"roughnessFactor":0.9},"doubleSided":true},{"pbrMetallicRoughness":{"baseColorFactor":[0.55201140150344,0.3515325994898463,0.19461783043107173,1],"metallicFactor":0,"roughnessFactor":0.9},"doubleSided":true}],"meshes":[{"primitives":[{"mode":4,"attributes":{"POSITION":0,"NORMAL":1,"TEXCOORD_0":2},"indices":3,"material":0}]},{"primitives":[{"mode":4,"attributes":{"POSITION":4,"NORMAL":5,"TEXCOORD_0":6},"indices":7,"material":1}]},{"primitives":[{"mode":4,"attributes":{"POSITION":8,"NORMAL":9,"TEXCOORD_0":10},"indices":11,"material":1}]},{"primitives":[{"mode":4,"attributes":{"POSITION":12,"NORMAL":13,"TEXCOORD_0":14},"indices":15,"material":1}]},{"primitives":[{"mode":4,"attributes":{"POSITION":16,"NORMAL":17,"TEXCOORD_0":18},"indices":19,"material":1}]},{"primitives":[{"mode":4,"attributes":{"POSITION":20,"NORMAL":21,"TEXCOORD_0":22},"indices":23,"material":2}]},{"primitives":[{"mode":4,"attributes":{"POSITION":24,"NORMAL":25,"TEXCOORD_0":26},"indices":27,"material":1}]},{"primitives":[{"mode":4,"attributes":{"POSITION":28,"NORMAL":29,"TEXCOORD_0":30},"indices":31,"material":1}]},{"primitives":[{"mode":4,"attributes":{"POSITION":32,"NORMAL":33,"TEXCOORD_0":34},"indices":35,"material":1}]},{"primitives":[{"mode":4,"attributes":{"POSITION":36,"NORMAL":37,"TEXCOORD_0":38},"indices":39,"material":1}]},{"primitives":[{"mode":4,"attributes":{"POSITION":40,"NORMAL":41,"TEXCOORD_0":42},"indices":43,"material":3}]},{"primitives":[{"mode":4,"attributes":{"POSITION":44,"NORMAL":45,"TEXCOORD_0":46},"indices":47,"material":1}]},{"primitives":[{"mode":4,"attributes":{"POSITION":48,"NORMAL":49,"TEXCOORD_0":50},"indices":51,"material":1}]},{"primitives":[{"mode":4,"attributes":{"POSITION":52,"NORMAL":53,"TEXCOORD_0":54},"indices":55,"material":1}]},{"primitives":[{"mode":4,"attributes":{"POSITION":56,"NORMAL":57,"TEXCOORD_0":58},"indices":59,"material":1}]},{"primitives":[{"mode":4,"attributes":{"POSITION":60,"NORMAL":61,"TEXCOORD_0":62},"indices":63,"material":4}]},{"primitives":[{"mode":4,"attributes":{"POSITION":64,"NORMAL":65,"TEXCOORD_0":66},"indices":67,"material":1}]},{"primitives":[{"mode":4,"attributes":{"POSITION":68,"NORMAL":69,"TEXCOORD_0":70},"indices":71,"material":1}]},{"primitives":[{"mode":4,"attributes":{"POSITION":72,"NORMAL":73,"TEXCOORD_0":74},"indices":75,"material":1}]},{"primitives":[{"mode":4,"attributes":{"POSITION":76,"NORMAL":77,"TEXCOORD_0":78},"indices":79,"material":1}]}]}